<svg xmlns="http://www.w3.org/2000/svg" xmlns:xlink="http://www.w3.org/1999/xlink" width="786" zoomAndPan="magnify" viewBox="0 0 589.5 589.499966" height="786" preserveAspectRatio="xMidYMid meet" version="1.0"><defs><g/><clipPath id="0aa9499986"><rect x="0" width="556" y="0" height="585"/></clipPath></defs><g transform="matrix(1, 0, 0, 1, 33, 4)"><g clip-path="url(#0aa9499986)"><g fill="#5170ff" fill-opacity="1"><g transform="translate(0.742276, 454.340812)"><g><path d="M 450.90625 -343.078125 L 493.046875 -343.078125 C 499.910156 -343.078125 505.382812 -342.34375 509.46875 -340.875 C 513.550781 -339.40625 515.59375 -336.546875 515.59375 -332.296875 C 515.59375 -328.046875 514.203125 -324.859375 511.421875 -322.734375 C 508.648438 -320.609375 505.140625 -318.320312 500.890625 -315.875 C 496.640625 -313.425781 492.304688 -309.75 487.890625 -304.84375 C 483.484375 -299.945312 479.484375 -292.597656 475.890625 -282.796875 L 384.25 -13.234375 C 383.269531 -9.960938 381.144531 -7.101562 377.875 -4.65625 C 374.601562 -2.207031 368.882812 -0.164062 360.71875 1.46875 C 352.226562 2.78125 345.859375 2.863281 341.609375 1.71875 C 337.359375 0.570312 334.582031 -1.957031 333.28125 -5.875 L 257.796875 -224.46875 L 186.234375 -13.234375 C 184.929688 -9.960938 182.726562 -7.101562 179.625 -4.65625 C 176.519531 -2.207031 170.882812 -0.164062 162.71875 1.46875 C 147.03125 3.757812 138.046875 1.3125 135.765625 -5.875 L 38.71875 -282.296875 C 35.445312 -292.097656 31.6875 -299.445312 27.4375 -304.34375 C 23.195312 -309.25 19.28125 -312.925781 15.6875 -315.375 C 12.09375 -317.832031 9.066406 -320.125 6.609375 -322.25 C 4.160156 -324.375 2.9375 -327.394531 2.9375 -331.3125 C 2.9375 -336.21875 4.894531 -339.40625 8.8125 -340.875 C 12.738281 -342.34375 18.457031 -343.078125 25.96875 -343.078125 L 93.609375 -343.078125 C 100.140625 -343.078125 105.285156 -342.34375 109.046875 -340.875 C 112.804688 -339.40625 114.6875 -336.378906 114.6875 -331.796875 C 114.6875 -327.554688 113.378906 -324.289062 110.765625 -322 C 108.148438 -319.71875 105.367188 -317.269531 102.421875 -314.65625 C 99.484375 -312.039062 97.523438 -308.28125 96.546875 -303.375 C 95.566406 -298.476562 96.710938 -291.289062 99.984375 -281.8125 L 173.984375 -61.75 L 243.578125 -265.640625 L 238.1875 -281.8125 C 234.925781 -291.613281 231.253906 -298.960938 227.171875 -303.859375 C 223.085938 -308.765625 219.242188 -312.523438 215.640625 -315.140625 C 212.046875 -317.753906 209.023438 -320.125 206.578125 -322.25 C 204.128906 -324.375 202.90625 -327.394531 202.90625 -331.3125 C 202.90625 -336.21875 204.863281 -339.40625 208.78125 -340.875 C 212.707031 -342.34375 218.425781 -343.078125 225.9375 -343.078125 L 293.578125 -343.078125 C 300.109375 -343.078125 305.332031 -342.34375 309.25 -340.875 C 313.175781 -339.40625 315.140625 -336.378906 315.140625 -331.796875 C 315.140625 -327.554688 313.832031 -324.289062 311.21875 -322 C 308.601562 -319.71875 305.828125 -317.269531 302.890625 -314.65625 C 299.953125 -312.039062 297.910156 -308.28125 296.765625 -303.375 C 295.617188 -298.476562 296.515625 -291.289062 299.453125 -281.8125 L 372 -63.21875 L 444.53125 -282.296875 C 447.800781 -292.097656 449.023438 -299.53125 448.203125 -304.59375 C 447.390625 -309.664062 445.59375 -313.34375 442.8125 -315.625 C 440.03125 -317.914062 437.332031 -320.125 434.71875 -322.25 C 432.113281 -324.375 430.8125 -327.394531 430.8125 -331.3125 C 430.8125 -336.21875 432.769531 -339.40625 436.6875 -340.875 C 440.601562 -342.34375 445.34375 -343.078125 450.90625 -343.078125 Z M 450.90625 -343.078125 "/></g></g></g><g fill="#5170ff" fill-opacity="1"><g transform="translate(514.811832, 454.340812)"><g/></g></g></g></g></svg>